# xmcd CD database file
#
# Track frame offsets:
#	150
#	29394
#	51428
#	77091
#	102822
#	129616
#	156593
#	183906
#	197941
#	211093
#	228533
#	259147
#	280045
#	292247
#	304631
#
# Disc length: 4240 seconds
#
# Revision: 0
# Processed by: cddbd v1.5.2PL0 Copyright (c) Steve Scherf et al.
# Submitted via: CDex 1.51
#
DISCID=de108e0f
DTITLE=Miles Davis - Antology
DYEAR=2013
DGENRE=Jazz
TTITLE0=Walkin'
TTITLE1=I got rhythm
TTITLE2=Compulsion
TTITLE3=Milestones
TTITLE4=Round midnight
TTITLE5=My funny Valentine
TTITLE6=Blue haze
TTITLE7=Straight no chaser
TTITLE8=Scrappel from the apple
TTITLE9=Bye, bye blackbird (part 1)
TTITLE10=Bye, bye blackbird (part 2)
TTITLE11=Serpent´s tooths
TTITLE12=Marmaduke
TTITLE13=Klaunstance
TTITLE14=Crazeology
EXTD=YEAR: 2013
EXTT0=
EXTT1=
EXTT2=
EXTT3=
EXTT4=
EXTT5=
EXTT6=
EXTT7=
EXTT8=
EXTT9=
EXTT10=
EXTT11=
EXTT12=
EXTT13=
EXTT14=
PLAYORDER=
